# xmcd CD database file
#
# Track frame offsets:
#	150
#	27959
#	45343
#	72805
#	87413
#	111167
#	129819
#	146083
#	169874
#	194880
#	211530
#	249294
#	268757
#	286018
#	308224
#
# Disc length: 4417 seconds
#
# Revision: 0
# Processed by: cddbd v1.5.2PL0 Copyright (c) Steve Scherf et al.
# Submitted via: CDex 1.51
#
DISCID=d1113f0f
DTITLE=Curtis Mayfield - Groove On Up (1970-79 Soul 15 faixas)
DYEAR=1970
DGENRE=Blues
TTITLE0=Kung Fu
TTITLE1=Sweet Exorcist
TTITLE2=Mother's Son
TTITLE3=Ain't No Love Lost
TTITLE4=So In Love
TTITLE5=Love To The People
TTITLE6=Only You Babe
TTITLE7=Show Me Love
TTITLE8=Do Do Wap Is Strong In Here
TTITLE9=You Are You Are
TTITLE10=Do It All Night
TTITLE11=Give Me Your Love [Love Song]
TTITLE12=People Get Ready (Live)
TTITLE13=We're A Winner (Live)
TTITLE14=Keep On Keeping On
EXTD=YEAR: 1970
EXTT0=
EXTT1=
EXTT2=
EXTT3=
EXTT4=
EXTT5=
EXTT6=
EXTT7=
EXTT8=
EXTT9=
EXTT10=
EXTT11=
EXTT12=
EXTT13=
EXTT14=
PLAYORDER=
